# xmcd
#
# Track frame offsets:
#	183
#	17095
#	31558
#	49545
#	67583
#	81570
#	96933
#	109708
#	124795
#	143028
#	158208
#	171445
#	188145
#	203070
#	220953
#	233820
#	249608
#	267508
#	285063
#	300220
#
# Disc length: 4194 seconds
#
# Revision: 1
# Processed by: cddbd v1.5.2PL0 Copyright (c) Steve Scherf et al.
# Submitted via: SynApp - FreeCDDB Version: 2.2
#
DISCID=08106014
DTITLE=Various Artist - Kuschel Country
DYEAR=1989
DGENRE=Country
TTITLE0=John Brack - She has no Memory of me
TTITLE1=Suzanne Klee - Would you lay with me
TTITLE2=Jeff Turner - Every time we want to love
TTITLE3=Doris Ackermann - Without you
TTITLE4=Country Ramblers - If i had left it up to you
TTITLE5=Peter, Sue and Marc - Diesel Mama
TTITLE6=George Hug - You'd break my heart
TTITLE7=Daniela Mühleis - Dreams
TTITLE8=The Sunday Skifflers - Ontario's snow
TTITLE9=Claudia - We belong together
TTITLE10=Suzanne Klee - I can't help it if i'm still in love with you
TTITLE11=George Hug - My home
TTITLE12=Doris Ackermann - I miss you at home
TTITLE13=John Brack - Losing you
TTITLE14=Daniela Mühleis - He's my man
TTITLE15=Jeff Turner - A minute of your time
TTITLE16=Country Ramblers - Hickory Wind
TTITLE17=Claudia - Talkin' to myself again
TTITLE18=The Sunday Skifflers - Stability
TTITLE19=Peter, Sue and Marc - Bye Bye friends
EXTD=
EXTT0=
EXTT1=
EXTT2=
EXTT3=
EXTT4=
EXTT5=
EXTT6=
EXTT7=
EXTT8=
EXTT9=
EXTT10=
EXTT11=
EXTT12=
EXTT13=
EXTT14=
EXTT15=
EXTT16=
EXTT17=
EXTT18=
EXTT19=
PLAYORDER=
